HIERARCHY
ROOT Hips
{
	OFFSET 0.00000 0.00000 0.00000
	CHANNELS 6 Xposition Yposition Zposition Yrotation Zrotation Xrotation 
	JOINT Lumbar
	{
		OFFSET 0 0 0
		CHANNELS 3 Zrotation Xrotation Yrotation
		JOINT Neck
		{
			OFFSET 0.00 0.2701 0.00
			CHANNELS 3 Zrotation Xrotation Yrotation
			End Site
			{
				OFFSET 0.00 0.1379 0.00
			}
		}
		JOINT RightShoulder
		{
			OFFSET 0.0119 0.2289 0.1181
			CHANNELS 3 Zrotation Xrotation Yrotation
			JOINT RightElbow
			{
				OFFSET 0.00 -0.1475 0.00
				CHANNELS 2 Zrotation Yrotation
				JOINT RightWrist
				{
					OFFSET 0.00 -0.1605 0.00
					CHANNELS 2 Zrotation Xrotation
					End Site
					{
						OFFSET 0.0040 -0.1068 0.0006
					}
				}
			}
		}
		JOINT LeftShoulder
		{
			OFFSET 0.0119 0.2289 -0.1181
			CHANNELS 3 Zrotation Xrotation Yrotation
			JOINT LeftElbow
			{
				OFFSET 0.00 -0.1475 0.00
				CHANNELS 2 Zrotation Yrotation
				JOINT LeftWrist
				{
					OFFSET 0.00 -0.1605 0.00
					CHANNELS 2 Zrotation Xrotation
					End Site
					{
						OFFSET 0.0040 -0.1068 -0.0006
					}
				}
			}
		}
	}
	JOINT RightHip
	{
		OFFSET 0.0316 -0.0424 0.0458
		CHANNELS 3 Zrotation Xrotation Yrotation
		JOINT RightKnee
		{
			OFFSET 0.00 -0.2438 0.00
			CHANNELS 1 Zrotation
			JOINT RightAnkle
			{
				OFFSET 0.00 -0.2449 0.00
				CHANNELS 3 Zrotation Xrotation Yrotation
				End Site
				{
					OFFSET 0.1237 -0.0542 0.0051
				}
			}
		}
	}
	JOINT LeftHip
	{
		OFFSET 0.0316 -0.0424 -0.0458
		CHANNELS 3 Zrotation Xrotation Yrotation
		JOINT LeftKnee
		{
			OFFSET 0.00 -0.2438 0.00
			CHANNELS 1 Zrotation
			JOINT LeftAnkle
			{
				OFFSET 0.00 -0.2449 0.00
				CHANNELS 3 Zrotation Xrotation Yrotation
				End Site
				{
					OFFSET 0.1237 -0.0542 -0.0051
				}
			}
		}
	}
}
MOTION
Frames: 26
Frame Time: 0.02
0.02855 0.59735 0.97078 1422.33167 0 3.49532 6.51712 -2.27067 7.36324 -23.48443 -2.12062 3.34842 16.95844 -12.08089 -0.87732 16.37982 80.255 -1.75984 -2.46043 8.21248 7.5834 32.40693 6.63658 -81.1455 -10.26161 4.51919 -8.21658 -5.15928 5.56241 -38.90795 8.89351 3.71744 11.75926 10.71487 -12.77404 0.12677 -11.13561 -1.83469 8.74681 11.57364
0.03938 0.59658 0.97033 1421.43814 0 4.48248 6.65227 -3.03891 7.50202 -23.31765 -2.08179 3.33311 16.55937 -12.44118 -0.98792 15.99771 80.34882 -1.62983 -1.97137 8.99083 7.62878 31.23627 6.92282 -81.10138 -10.41414 4.43916 -5.33508 -6.71915 5.83922 -44.341 5.53319 3.14727 12.59739 9.89216 -13.11137 7.23235 -12.03341 -0.81414 7.33986 6.64971
0.04927 0.59529 0.96983 1420.68323 0 5.46238 6.57116 -3.85411 7.47998 -22.76244 -1.93218 3.25638 15.95586 -12.86539 -1.13286 15.6004 80.47332 -1.48775 -1.48513 9.57367 7.63823 29.75867 7.22984 -81.03061 -10.56703 4.36297 -1.88277 -8.11184 6.2176 -50.35222 1.65841 2.14805 12.99907 9.21211 -13.25581 16.05258 -13.21849 0.60753 5.31479 0.23248
0.05954 0.59428 0.96939 1419.89449 0 6.41301 6.591 -4.623 7.51323 -22.41563 -1.83169 3.19701 15.47213 -13.24514 -1.28447 15.21659 80.57889 -1.36161 -1.01116 10.27744 7.67491 28.42572 7.52904 -80.97474 -10.72218 4.29092 1.29393 -9.52056 6.53823 -56.00552 -1.83462 1.36478 13.51158 8.46016 -13.48628 23.83387 -14.23536 1.82172 3.63599 -5.31164
0.06999 0.59309 0.9688 1418.97589 0 7.50656 6.60295 -5.49925 7.6279 -21.9443 -1.74084 3.1825 14.88032 -13.68937 -1.34653 14.7985 80.7039 -1.19194 -0.47359 10.86268 7.66938 27.05649 7.82495 -80.91043 -10.86985 4.19376 4.55911 -11.19295 6.9058 -62.10174 -5.96127 0.49292 14.3988 7.73172 -13.72624 32.73988 -15.40553 3.14952 1.69257 -11.6781
0.07984 0.59216 0.96851 1418.3651 0 8.29758 6.57753 -6.16192 7.53182 -21.6338 -1.60067 3.06144 14.45924 -14.01566 -1.60004 14.45141 80.79651 -1.10828 -0.07151 11.63952 7.74031 25.69537 8.13146 -80.85544 -11.03229 4.14929 7.7649 -12.27152 7.20025 -67.38274 -8.89127 -0.29772 14.40406 6.99086 -13.89924 39.69184 -16.32544 4.33264 0.14578 -16.68596
0.08828 0.59207 0.96902 1418.54783 0 8.26829 6.51554 -6.22817 6.90018 -21.89172 -1.3662 2.64154 14.60594 -13.98891 -2.39203 14.29442 80.78964 -1.28461 -0.04374 13.02145 8.04892 24.43452 8.45956 -80.8412 -11.23308 4.25725 10.70162 -11.76212 7.27299 -70.4417 -8.33562 -0.74027 12.03188 6.1779 -13.93926 40.92468 -16.50165 5.02497 -0.11057 -17.5738
0.09613 0.59226 0.96985 1419.04009 0 7.93224 6.4204 -6.07717 6.06038 -22.318 -1.08272 2.1199 14.9225 -13.84349 -3.37135 14.2115 80.74971 -1.54463 -0.15255 14.59493 8.43187 23.19487 8.79727 -80.83555 -11.44846 4.41692 13.54883 -10.65812 7.26954 -72.62247 -6.56616 -1.08884 8.79741 5.34902 -13.91745 40.11286 -16.41454 5.55603 0.04567 -17.04272
0.10421 0.59232 0.97055 1419.40649 0 7.7266 6.33131 -6.02169 5.30979 -22.64741 -0.81148 1.6574 15.13105 -13.75985 -4.25306 14.10241 80.72679 -1.75339 -0.19977 16.06117 8.7691 21.94469 9.13214 -80.81971 -11.65868 4.54771 16.41349 -9.81702 7.29602 -75.09296 -5.38688 -1.49343 5.98505 4.53004 -13.92041 40.169 -16.43652 6.15493 -0.0186 -17.1637
0.1124 0.59235 0.97118 1419.71645 0 7.55657 6.27335 -5.97963 4.57433 -23.05089 -0.57867 1.13828 15.46347 -13.6448 -5.19024 13.96308 80.69671 -2.01667 -0.24677 17.60917 9.15641 20.68374 9.46256 -80.82852 -11.86399 4.70072 19.40135 -8.9985 7.33951 -78.05576 -4.06346 -1.85969 3.0195 3.70424 -13.93032 40.53659 -16.51005 6.78925 0.02946 -17.3083
0.12025 0.59253 0.97202 1420.214 0 7.24239 6.14477 -5.85965 3.76264 -23.34321 -0.25577 0.71377 15.57981 -13.56679 -6.05397 13.90202 80.67308 -2.18754 -0.32435 19.031 9.45639 19.45876 9.80273 -80.78964 -12.08142 4.82045 22.09766 -7.99721 7.33608 -79.76458 -2.74473 -2.27427 0.18708 2.8876 -13.91408 39.75667 -16.41371 7.30837 -0.04343 -17.0448
0.12733 0.59313 0.97336 1421.16857 0 6.58043 5.83657 -5.55724 2.76946 -23.30548 0.30413 0.57533 15.06799 -13.61402 -6.68587 14.06065 80.67722 -2.07291 -0.47302 20.09046 9.5069 18.29253 10.18013 -80.60575 -12.34166 4.82892 24.05754 -6.60904 7.15222 -78.32499 -1.73574 -2.87361 -2.17839 2.09449 -13.83714 36.21738 -15.8796 7.52785 -0.60751 -16.01386
0.13411 0.59387 0.9749 1422.29804 0 5.78835 5.45849 -5.18699 1.71191 -23.14887 0.95192 0.53597 14.33204 -13.70318 -7.23446 14.29128 80.68864 -1.86396 -0.64395 21.01095 9.46533 17.17033 10.56434 -80.37572 -12.611 4.80324 25.71368 -5.06392 6.93533 -75.63142 -0.77006 -3.51712 -4.35732 1.31135 -13.7375 31.60114 -15.18847 7.63854 -1.29325 -14.61094
0.14102 0.59451 0.97635 1423.33681 0 5.07247 5.1083 -4.86156 0.69864 -23.03646 1.55939 0.45152 13.69308 -13.77713 -7.80947 14.47517 80.69516 -1.70518 -0.79161 21.9747 9.45953 16.0523 10.93729 -80.17442 -12.86789 4.7977 27.4775 -3.60901 6.77982 -73.44477 0.2171 -4.1199 -6.54604 0.52687 -13.65183 27.5301 -14.58945 7.81114 -1.88419 -13.36323
0.14789 0.59529 0.97782 1424.43291 0 4.275 4.77182 -4.47151 -0.38662 -22.97015 2.17223 0.36356 13.08029 -13.8318 -8.43772 14.72192 80.70666 -1.51994 -0.99981 23.02981 9.48173 14.83118 11.34594 -79.94097 -13.16109 4.7749 29.37388 -2.05153 6.42976 -71.49679 1.23584 -4.8078 -9.08091 -0.27085 -13.54914 23.15728 -13.89351 7.92696 -2.63084 -12.1271
0.1548 0.59581 0.97929 1425.44824 0 3.61913 4.39232 -4.20028 -1.33302 -22.77869 2.79157 0.308 12.35781 -13.9368 -8.93488 14.85249 80.71068 -1.3645 -1.08511 23.85812 9.42306 13.83693 11.68065 -79.76296 -13.37976 4.77869 30.91413 -0.68066 6.47329 -68.76137 2.16633 -5.3289 -10.84022 -1.03927 -13.47647 19.17876 -13.36592 8.13569 -3.0837 -10.79466
0.16181 0.59556 0.98071 1426.18629 0 3.40005 3.89761 -4.2964 -1.89092 -22.26028 3.42843 0.31647 11.38529 -14.18192 -9.0721 14.6565 80.6856 -1.33027 -0.82792 24.1016 9.16108 13.44212 11.81843 -79.75333 -13.39787 4.86901 31.6229 0.15549 7.65247 -64.20423 2.82516 -5.38862 -10.49065 -1.72224 -13.49959 16.60539 -13.33999 8.64126 -2.73017 -9.31331
0.16888 0.59503 0.98214 1426.83766 0 3.32704 3.36505 -4.5115 -2.30354 -21.62152 4.06443 0.35486 10.31017 -14.47448 -9.08287 14.33878 80.65389 -1.32643 -0.44547 24.11898 8.82125 13.27669 11.87988 -79.80038 -13.33924 4.98618 31.97074 0.79251 9.22132 -58.90111 3.39575 -5.27782 -9.36595 -2.37729 -13.55222 14.46872 -13.49085 9.24218 -2.07414 -7.75235
0.17599 0.59462 0.98356 1427.53459 0 3.17942 2.8585 -4.65817 -2.77486 -21.04342 4.68695 0.38084 9.28177 -14.73867 -9.16243 14.06827 80.63005 -1.29717 -0.11774 24.23449 8.51799 13.01736 11.97034 -79.81868 -13.31076 5.08761 32.43191 1.50444 10.58588 -53.90439 4.02856 -5.23853 -8.59903 -3.04965 -13.58737 12.10444 -13.56274 9.79146 -1.5336 -6.21481
0.18281 0.59423 0.985 1428.21154 0 3.06129 2.31105 -4.86221 -3.28044 -20.4346 5.37183 0.40521 8.24303 -15.03384 -9.19087 13.83343 80.58693 -1.31151 0.20112 24.36613 8.2054 12.71752 12.08491 -79.8476 -13.30245 5.20258 33.09194 2.28547 12.06548 -48.97062 4.5757 -5.22466 -7.79909 -3.70221 -13.64059 9.81417 -13.62181 10.37247 -1.08238 -4.70763
0.19026 0.59375 0.9864 1428.90752 0 2.91879 1.84229 -4.97687 -3.6781 -19.8646 5.9246 0.43874 7.20715 -15.27419 -9.29747 13.49586 80.58104 -1.24618 0.56686 24.41059 7.89636 12.55394 12.1312 -79.86896 -13.23393 5.29646 33.26173 2.8764 13.39669 -43.78321 5.27014 -5.11843 -6.8909 -4.38943 -13.66133 7.50049 -13.75337 10.91077 -0.38114 -3.13543
0.19933 0.59305 0.98759 1429.67417 0 2.66779 1.58787 -4.80725 -3.82329 -19.41667 6.1193 0.48997 6.18294 -15.35999 -9.64594 12.8922 80.68993 -0.93051 1.0457 24.28424 7.60471 12.72719 12.00591 -79.85129 -13.01654 5.32289 32.11575 2.96139 14.23773 -37.75281 6.48216 -4.78507 -5.83306 -5.17856 -13.60202 4.91457 -14.03055 11.31329 1.01627 -1.30426
0.20905 0.59226 0.98873 1430.46327 0 2.38816 1.41709 -4.54483 -3.86311 -19.01608 6.17933 0.54877 5.17132 -15.38699 -10.07903 12.19157 80.83421 -0.53835 1.56459 24.076 7.32213 13.02596 11.81476 -79.825 -12.74155 5.32764 30.49809 2.86669 14.91308 -31.55647 7.82897 -4.36737 -4.70211 -6.0028 -13.50478 2.31441 -14.3791 11.66821 2.63991 0.56854
0.21852 0.59152 0.98992 1431.24238 0 2.12686 1.21579 -4.33161 -3.94369 -18.60296 6.29641 0.60402 4.16767 -15.43545 -10.47667 11.54257 80.95583 -0.19668 2.0563 23.89623 7.04306 13.25652 11.65495 -79.80582 -12.49357 5.34451 29.13309 2.87286 15.65506 -25.66026 9.05547 -3.99668 -3.63108 -6.81255 -13.41548 -0.20736 -14.70117 12.04302 4.10898 2.35605
0.22778 0.59075 0.99099 1432.015 0 1.85123 0.97953 -4.09561 -4.04746 -18.14436 6.4314 0.66161 3.0981 -15.50866 -10.85603 10.85621 81.10628 0.21044 2.59146 23.74501 6.72806 13.54364 11.48681 -79.77544 -12.23876 5.35356 27.60058 2.79091 16.44841 -18.80306 10.52777 -3.58195 -2.41732 -7.6188 -13.37136 -3.01789 -14.99762 12.43204 5.80952 4.42905
0.23764 0.59003 0.99231 1432.81092 0 1.59287 0.83895 -3.88 -4.08214 -17.79743 6.49668 0.71479 2.17572 -15.51466 -11.29662 10.22778 81.20354 0.49972 3.04253 23.5183 6.49226 13.73802 11.32102 -79.76518 -11.98632 5.37237 26.30092 2.8526 17.08882 -13.89965 11.5218 -3.24295 -1.49718 -8.43646 -13.21759 -5.23633 -15.37032 12.77439 7.07465 5.91341
